<svg xmlns="http://www.w3.org/2000/svg" width="1200" height="900" viewBox="0 0 1200 900" role="img" aria-labelledby="title desc">
  <title id="title">Granny Square Drawstring Pouch</title>
  <desc id="desc">Illustrated placeholder for stacked cream granny square drawstring crochet pouches.</desc>
  <rect width="1200" height="900" fill="#fbf4ec"/>
  <g transform="translate(185 185)">
    <rect x="430" y="90" width="330" height="430" rx="34" fill="#fff5dc" stroke="#173431" stroke-width="14"/>
    <rect x="250" y="55" width="330" height="430" rx="34" fill="#fff5dc" stroke="#173431" stroke-width="14"/>
    <rect x="70" y="20" width="330" height="430" rx="34" fill="#fff5dc" stroke="#173431" stroke-width="14"/>
    <g fill="#8a3d2f">
      <circle cx="152" cy="105" r="36"/>
      <circle cx="312" cy="105" r="36"/>
      <circle cx="152" cy="260" r="36"/>
      <circle cx="312" cy="260" r="36"/>
    </g>
    <g fill="#c98f91">
      <circle cx="332" cy="140" r="34"/>
      <circle cx="492" cy="140" r="34"/>
      <circle cx="332" cy="295" r="34"/>
      <circle cx="492" cy="295" r="34"/>
    </g>
    <g fill="#2454b9">
      <circle cx="512" cy="175" r="34"/>
      <circle cx="672" cy="175" r="34"/>
      <circle cx="512" cy="330" r="34"/>
      <circle cx="672" cy="330" r="34"/>
    </g>
    <g fill="#fffaf5">
      <circle cx="152" cy="105" r="14"/>
      <circle cx="312" cy="105" r="14"/>
      <circle cx="152" cy="260" r="14"/>
      <circle cx="312" cy="260" r="14"/>
      <circle cx="332" cy="140" r="14"/>
      <circle cx="492" cy="140" r="14"/>
      <circle cx="512" cy="175" r="14"/>
      <circle cx="672" cy="175" r="14"/>
    </g>
  </g>
  <text x="600" y="835" text-anchor="middle" fill="#173431" font-family="Georgia, serif" font-size="52">Granny Square Drawstring Pouch</text>
</svg>
